<svg viewBox="0 0 1180 640" width="1180" height="640" xmlns="http://www.w3.org/2000/svg" font-family="-apple-system, BlinkMacSystemFont, 'Segoe UI', 'PingFang SC', 'Hiragino Sans GB', 'Microsoft YaHei', sans-serif">
  <!-- 画布底 -->
  <rect x="0" y="0" width="1180" height="640" rx="14" fill="#e2e8f0"/>
  <!-- 浏览器窗口 -->
  <rect x="10" y="10" width="1160" height="620" rx="10" fill="#ffffff" stroke="#cbd5e1"/>
  <!-- 窗口栏 -->
  <rect x="10" y="10" width="1160" height="36" rx="10" fill="#f1f5f9"/>
  <rect x="10" y="36" width="1160" height="10" fill="#f1f5f9"/>
  <circle cx="34" cy="28" r="6" fill="#f87171"/>
  <circle cx="54" cy="28" r="6" fill="#fbbf24"/>
  <circle cx="74" cy="28" r="6" fill="#34d399"/>
  <rect x="360" y="17" width="460" height="22" rx="11" fill="#ffffff" stroke="#e2e8f0"/>
  <text x="590" y="32" text-anchor="middle" font-size="12" fill="#94a3b8">admin.example.com · 管理端</text>

  <!-- 左侧导航 -->
  <rect x="10" y="46" width="180" height="584" fill="#0f172a"/>
  <path d="M10 46 h180 v584 h-170 a10 10 0 0 1 -10 -10 z" fill="#0f172a"/>
  <text x="34" y="82" font-size="15" font-weight="700" fill="#f8fafc">🍢 元订货</text>
  <!-- 选中项 -->
  <rect x="22" y="100" width="156" height="34" rx="7" fill="#2563eb"/>
  <text x="38" y="122" font-size="13" font-weight="600" fill="#ffffff">运营总览</text>
  <g font-size="13" fill="#94a3b8">
    <text x="38" y="160">订货管理</text>
    <text x="38" y="194">商品管理</text>
    <text x="38" y="228">库存盘点</text>
    <text x="38" y="262">生产工单</text>
    <text x="38" y="296">巡检经营分</text>
    <text x="38" y="330">元财务</text>
    <text x="38" y="364">选址工具</text>
    <text x="38" y="398">CRM 招商</text>
    <text x="38" y="432">外卖运营</text>
    <text x="38" y="466">培训考试</text>
    <text x="38" y="500">系统设置</text>
  </g>

  <!-- 主区标题 -->
  <text x="214" y="84" font-size="19" font-weight="700" fill="#0f172a">运营总览</text>
  <rect x="960" y="64" width="190" height="30" rx="7" fill="#f8fafc" stroke="#e2e8f0"/>
  <text x="1055" y="84" text-anchor="middle" font-size="12" fill="#64748b">📅 2026-07-01 ~ 2026-07-16</text>

  <!-- KPI 卡片 -->
  <g>
    <rect x="214" y="104" width="222" height="86" rx="10" fill="#ffffff" stroke="#e2e8f0"/>
    <text x="232" y="130" font-size="12" fill="#64748b">本月营业额(全部门店)</text>
    <text x="232" y="162" font-size="24" font-weight="700" fill="#0f172a">¥286.4 万</text>
    <text x="232" y="182" font-size="12" fill="#16a34a">▲ 6.2% 环比上月</text>

    <rect x="452" y="104" width="222" height="86" rx="10" fill="#ffffff" stroke="#e2e8f0"/>
    <text x="470" y="130" font-size="12" fill="#64748b">在营门店</text>
    <text x="470" y="162" font-size="24" font-weight="700" fill="#0f172a">128 家</text>
    <text x="470" y="182" font-size="12" fill="#16a34a">本月新开 3 · 闭店 0</text>

    <rect x="690" y="104" width="222" height="86" rx="10" fill="#ffffff" stroke="#e2e8f0"/>
    <text x="708" y="130" font-size="12" fill="#64748b">本月订货单</text>
    <text x="708" y="162" font-size="24" font-weight="700" fill="#0f172a">1,842 单</text>
    <text x="708" y="182" font-size="12" fill="#64748b">冷链 1,204 · 快递 638</text>

    <rect x="928" y="104" width="222" height="86" rx="10" fill="#ffffff" stroke="#e2e8f0"/>
    <text x="946" y="130" font-size="12" fill="#64748b">门店经营分均分</text>
    <text x="946" y="162" font-size="24" font-weight="700" fill="#0f172a">86.5 分</text>
    <text x="946" y="182" font-size="12" fill="#dc2626">▼ 待整改门店 5 家</text>
  </g>

  <!-- 趋势图卡片 -->
  <rect x="214" y="206" width="560" height="404" rx="10" fill="#ffffff" stroke="#e2e8f0"/>
  <text x="234" y="236" font-size="14" font-weight="600" fill="#0f172a">近 30 天营业额趋势</text>
  <text x="754" y="236" text-anchor="end" font-size="11" fill="#94a3b8">录入 + 三平台抓取</text>
  <!-- 坐标网格 -->
  <g stroke="#f1f5f9" stroke-width="1">
    <line x1="252" y1="270" x2="750" y2="270"/>
    <line x1="252" y1="330" x2="750" y2="330"/>
    <line x1="252" y1="390" x2="750" y2="390"/>
    <line x1="252" y1="450" x2="750" y2="450"/>
    <line x1="252" y1="510" x2="750" y2="510"/>
    <line x1="252" y1="570" x2="750" y2="570"/>
  </g>
  <g font-size="10" fill="#94a3b8" text-anchor="end">
    <text x="246" y="274">12万</text>
    <text x="246" y="334">10万</text>
    <text x="246" y="394">8万</text>
    <text x="246" y="454">6万</text>
    <text x="246" y="514">4万</text>
    <text x="246" y="574">2万</text>
  </g>
  <!-- 面积 + 折线(虚构曲线) -->
  <path d="M252 500 L285 480 L318 492 L351 458 L384 470 L417 430 L450 446 L483 402 L516 420 L549 380 L582 396 L615 350 L648 372 L681 330 L714 348 L750 300 L750 570 L252 570 Z" fill="#dbeafe" opacity="0.7"/>
  <path d="M252 500 L285 480 L318 492 L351 458 L384 470 L417 430 L450 446 L483 402 L516 420 L549 380 L582 396 L615 350 L648 372 L681 330 L714 348 L750 300" fill="none" stroke="#2563eb" stroke-width="2.5" stroke-linejoin="round"/>
  <circle cx="750" cy="300" r="4" fill="#2563eb"/>
  <g font-size="10" fill="#94a3b8" text-anchor="middle">
    <text x="252" y="590">6/17</text>
    <text x="376" y="590">6/25</text>
    <text x="500" y="590">7/2</text>
    <text x="624" y="590">7/9</text>
    <text x="748" y="590">7/16</text>
  </g>

  <!-- 经营分排名卡片 -->
  <rect x="790" y="206" width="360" height="404" rx="10" fill="#ffffff" stroke="#e2e8f0"/>
  <text x="810" y="236" font-size="14" font-weight="600" fill="#0f172a">门店经营分 TOP</text>
  <text x="1130" y="236" text-anchor="end" font-size="11" fill="#2563eb">查看全部 ›</text>
  <g font-size="11" fill="#94a3b8">
    <text x="810" y="264">门店</text>
    <text x="1010" y="264">经营分</text>
    <text x="1092" y="264">档位</text>
  </g>
  <line x1="810" y1="274" x2="1130" y2="274" stroke="#f1f5f9"/>
  <g font-size="13" fill="#334155">
    <text x="810" y="302">示例一店</text><text x="1010" y="302" font-weight="700">92.5</text>
    <rect x="1084" y="288" width="36" height="20" rx="10" fill="#dcfce7"/><text x="1102" y="302" text-anchor="middle" font-size="11" fill="#16a34a">A</text>
    <text x="810" y="340">示例二店</text><text x="1010" y="340" font-weight="700">90.1</text>
    <rect x="1084" y="326" width="36" height="20" rx="10" fill="#dcfce7"/><text x="1102" y="340" text-anchor="middle" font-size="11" fill="#16a34a">A</text>
    <text x="810" y="378">示例三店</text><text x="1010" y="378" font-weight="700">87.4</text>
    <rect x="1084" y="364" width="36" height="20" rx="10" fill="#dbeafe"/><text x="1102" y="378" text-anchor="middle" font-size="11" fill="#2563eb">B+</text>
    <text x="810" y="416">示例四店</text><text x="1010" y="416" font-weight="700">85.9</text>
    <rect x="1084" y="402" width="36" height="20" rx="10" fill="#dbeafe"/><text x="1102" y="416" text-anchor="middle" font-size="11" fill="#2563eb">B+</text>
    <text x="810" y="454">示例五店</text><text x="1010" y="454" font-weight="700">83.2</text>
    <rect x="1084" y="440" width="36" height="20" rx="10" fill="#dbeafe"/><text x="1102" y="454" text-anchor="middle" font-size="11" fill="#2563eb">B</text>
    <text x="810" y="492">示例六店</text><text x="1010" y="492" font-weight="700">79.8</text>
    <rect x="1084" y="478" width="36" height="20" rx="10" fill="#fef3c7"/><text x="1102" y="492" text-anchor="middle" font-size="11" fill="#d97706">C</text>
  </g>
  <rect x="810" y="516" width="320" height="72" rx="8" fill="#fef2f2"/>
  <text x="826" y="544" font-size="12" fill="#dc2626" font-weight="600">⚠ 2 家门店整改超期,已自动锁订货</text>
  <text x="826" y="566" font-size="11" fill="#94a3b8">豁免须走统一入口并留痕</text>

  <!-- 示意水印 -->
  <text x="1156" y="626" text-anchor="end" font-size="11" fill="#94a3b8">界面示意图 · 数据均为虚构</text>
</svg>
