<svg viewBox="0 0 1180 620" width="1180" height="620" xmlns="http://www.w3.org/2000/svg" font-family="-apple-system, BlinkMacSystemFont, 'Segoe UI', 'PingFang SC', 'Hiragino Sans GB', 'Microsoft YaHei', sans-serif">
  <rect x="0" y="0" width="1180" height="620" rx="14" fill="#e2e8f0"/>
  <rect x="10" y="10" width="1160" height="600" rx="10" fill="#ffffff" stroke="#cbd5e1"/>
  <rect x="10" y="10" width="1160" height="36" rx="10" fill="#f1f5f9"/>
  <rect x="10" y="36" width="1160" height="10" fill="#f1f5f9"/>
  <circle cx="34" cy="28" r="6" fill="#f87171"/>
  <circle cx="54" cy="28" r="6" fill="#fbbf24"/>
  <circle cx="74" cy="28" r="6" fill="#34d399"/>
  <rect x="360" y="17" width="460" height="22" rx="11" fill="#ffffff" stroke="#e2e8f0"/>
  <text x="590" y="32" text-anchor="middle" font-size="12" fill="#94a3b8">admin.example.com · 元财务(自建内账引擎)</text>

  <!-- 左侧导航 -->
  <rect x="10" y="46" width="180" height="564" fill="#0f172a"/>
  <path d="M10 46 h180 v564 h-170 a10 10 0 0 1 -10 -10 z" fill="#0f172a"/>
  <text x="34" y="82" font-size="15" font-weight="700" fill="#f8fafc">📒 元财务</text>
  <rect x="22" y="100" width="156" height="34" rx="7" fill="#2563eb"/>
  <text x="38" y="122" font-size="13" font-weight="600" fill="#ffffff">记账凭证</text>
  <g font-size="13" fill="#94a3b8">
    <text x="38" y="160">科目余额表</text>
    <text x="38" y="194">利润表</text>
    <text x="38" y="228">资产负债表</text>
    <text x="38" y="262">现金流量表</text>
    <text x="38" y="296">经营报表</text>
    <text x="38" y="330">资金账户</text>
    <text x="38" y="364">固定资产</text>
    <text x="38" y="398">税金计提</text>
    <text x="38" y="432">期末结账</text>
  </g>

  <!-- 工具栏 -->
  <text x="214" y="84" font-size="19" font-weight="700" fill="#0f172a">记账凭证</text>
  <text x="330" y="84" font-size="12" fill="#64748b">账期 2026-07 · 未结账</text>
  <rect x="856" y="62" width="96" height="32" rx="7" fill="#2563eb"/>
  <text x="904" y="83" text-anchor="middle" font-size="13" fill="#ffffff">+ 新增凭证</text>
  <rect x="962" y="62" width="90" height="32" rx="7" fill="#ffffff" stroke="#cbd5e1"/>
  <text x="1007" y="83" text-anchor="middle" font-size="13" fill="#334155">批量过账</text>
  <rect x="1062" y="62" width="90" height="32" rx="7" fill="#ffffff" stroke="#cbd5e1"/>
  <text x="1107" y="83" text-anchor="middle" font-size="13" fill="#334155">推送外账</text>

  <!-- 表格 -->
  <rect x="214" y="108" width="938" height="446" rx="10" fill="#ffffff" stroke="#e2e8f0"/>
  <rect x="214" y="108" width="938" height="40" rx="10" fill="#f8fafc"/>
  <rect x="214" y="128" width="938" height="20" fill="#f8fafc"/>
  <g font-size="12" fill="#64748b" font-weight="600">
    <text x="234" y="133">日期</text>
    <text x="322" y="133">凭证字号</text>
    <text x="416" y="133">摘要</text>
    <text x="660" y="133">科目(借 / 贷)</text>
    <text x="905" y="133" text-anchor="end">金额</text>
    <text x="952" y="133">来源</text>
    <text x="1072" y="133">状态</text>
  </g>
  <g font-size="12.5" fill="#334155">
    <line x1="214" y1="148" x2="1152" y2="148" stroke="#f1f5f9"/>
    <text x="234" y="176">07-16</text>
    <text x="322" y="176">记-0091</text>
    <text x="416" y="176">门店订货发货确认收入</text>
    <text x="660" y="176" font-size="11.5" fill="#64748b">应收账款 / 主营业务收入</text>
    <text x="905" y="176" text-anchor="end" font-weight="600">48,650.00</text>
    <rect x="946" y="162" width="76" height="20" rx="10" fill="#eff6ff"/><text x="984" y="176" text-anchor="middle" font-size="11" fill="#2563eb">自动·订货</text>
    <text x="1072" y="176" fill="#16a34a">已过账</text>

    <line x1="214" y1="192" x2="1152" y2="192" stroke="#f1f5f9"/>
    <text x="234" y="220">07-16</text>
    <text x="322" y="220">记-0090</text>
    <text x="416" y="220">同步结转发出商品成本</text>
    <text x="660" y="220" font-size="11.5" fill="#64748b">主营业务成本 / 库存商品</text>
    <text x="905" y="220" text-anchor="end" font-weight="600">27,410.00</text>
    <rect x="946" y="206" width="76" height="20" rx="10" fill="#eff6ff"/><text x="984" y="220" text-anchor="middle" font-size="11" fill="#2563eb">自动·订货</text>
    <text x="1072" y="220" fill="#16a34a">已过账</text>

    <line x1="214" y1="236" x2="1152" y2="236" stroke="#f1f5f9"/>
    <text x="234" y="264">07-15</text>
    <text x="322" y="264">记-0089</text>
    <text x="416" y="264">供应商来料验收入库</text>
    <text x="660" y="264" font-size="11.5" fill="#64748b">原材料 / 应付账款</text>
    <text x="905" y="264" text-anchor="end" font-weight="600">36,208.00</text>
    <rect x="946" y="250" width="76" height="20" rx="10" fill="#eff6ff"/><text x="984" y="264" text-anchor="middle" font-size="11" fill="#2563eb">自动·采购</text>
    <text x="1072" y="264" fill="#16a34a">已过账</text>

    <line x1="214" y1="280" x2="1152" y2="280" stroke="#f1f5f9"/>
    <text x="234" y="308">07-15</text>
    <text x="322" y="308">记-0088</text>
    <text x="416" y="308">银行收门店订货款</text>
    <text x="660" y="308" font-size="11.5" fill="#64748b">银行存款 / 应收账款</text>
    <text x="905" y="308" text-anchor="end" font-weight="600">52,300.00</text>
    <rect x="946" y="294" width="76" height="20" rx="10" fill="#eff6ff"/><text x="984" y="308" text-anchor="middle" font-size="11" fill="#2563eb">自动·收付</text>
    <text x="1072" y="308" fill="#16a34a">已过账</text>

    <line x1="214" y1="324" x2="1152" y2="324" stroke="#f1f5f9"/>
    <text x="234" y="352">07-14</text>
    <text x="322" y="352">记-0087</text>
    <text x="416" y="352">7月房租及水电报销</text>
    <text x="660" y="352" font-size="11.5" fill="#64748b">管理费用 / 其他应付款</text>
    <text x="905" y="352" text-anchor="end" font-weight="600">18,500.00</text>
    <rect x="946" y="338" width="76" height="20" rx="10" fill="#eff6ff"/><text x="984" y="352" text-anchor="middle" font-size="11" fill="#2563eb">自动·报销</text>
    <text x="1072" y="352" fill="#16a34a">已过账</text>

    <line x1="214" y1="368" x2="1152" y2="368" stroke="#f1f5f9"/>
    <text x="234" y="396">07-14</text>
    <text x="322" y="396">记-0086</text>
    <text x="416" y="396">月末盘点差异调整</text>
    <text x="660" y="396" font-size="11.5" fill="#64748b">管理费用 / 库存商品</text>
    <text x="905" y="396" text-anchor="end" font-weight="600">1,236.00</text>
    <rect x="946" y="382" width="76" height="20" rx="10" fill="#eff6ff"/><text x="984" y="396" text-anchor="middle" font-size="11" fill="#2563eb">自动·盘点</text>
    <text x="1072" y="396" fill="#16a34a">已过账</text>

    <line x1="214" y1="412" x2="1152" y2="412" stroke="#f1f5f9"/>
    <text x="234" y="440">07-13</text>
    <text x="322" y="440">记-0085</text>
    <text x="416" y="440">计提本月增值税及附加</text>
    <text x="660" y="440" font-size="11.5" fill="#64748b">税金及附加 / 应交税费</text>
    <text x="905" y="440" text-anchor="end" font-weight="600">6,420.00</text>
    <rect x="946" y="426" width="76" height="20" rx="10" fill="#fef3c7"/><text x="984" y="440" text-anchor="middle" font-size="11" fill="#d97706">自动·税金</text>
    <text x="1072" y="440" fill="#16a34a">已过账</text>

    <line x1="214" y1="456" x2="1152" y2="456" stroke="#f1f5f9"/>
    <text x="234" y="484">07-12</text>
    <text x="322" y="484">记-0084</text>
    <text x="416" y="484">门店退货冲减收入(红字)</text>
    <text x="660" y="484" font-size="11.5" fill="#64748b">主营业务收入 / 应收账款</text>
    <text x="905" y="484" text-anchor="end" font-weight="600" fill="#dc2626">-1,860.00</text>
    <rect x="946" y="470" width="76" height="20" rx="10" fill="#fef2f2"/><text x="984" y="484" text-anchor="middle" font-size="11" fill="#dc2626">自动·红冲</text>
    <text x="1072" y="484" fill="#16a34a">已过账</text>

    <line x1="214" y1="500" x2="1152" y2="500" stroke="#f1f5f9"/>
    <text x="234" y="528">07-12</text>
    <text x="322" y="528">记-0083</text>
    <text x="416" y="528">购工厂封口机一台</text>
    <text x="660" y="528" font-size="11.5" fill="#64748b">固定资产 / 银行存款</text>
    <text x="905" y="528" text-anchor="end" font-weight="600">12,800.00</text>
    <rect x="946" y="514" width="76" height="20" rx="10" fill="#f1f5f9"/><text x="984" y="528" text-anchor="middle" font-size="11" fill="#64748b">手工</text>
    <text x="1072" y="528" fill="#d97706">待审核</text>
  </g>

  <!-- 底部合计条 -->
  <rect x="214" y="566" width="938" height="34" rx="8" fill="#f8fafc" stroke="#e2e8f0"/>
  <text x="234" y="588" font-size="12" fill="#64748b">本期凭证 91 张,其中自动凭证 86 张(94%) · 借贷合计 ¥1,284,360.00 / ¥1,284,360.00</text>
  <text x="1132" y="588" text-anchor="end" font-size="12" font-weight="700" fill="#16a34a">✓ 平</text>

  <text x="1156" y="614" text-anchor="end" font-size="11" fill="#94a3b8">界面示意图 · 数据均为虚构</text>
</svg>
